<svg width="24" height="13" viewBox="0 0 24 13" fill="none" xmlns="http://www.w3.org/2000/svg">
    <path fill-rule="evenodd" clip-rule="evenodd" d="M11.9999 0.000341095C7.215 0.000341095 2.93705 2.31766 0.115284 5.93755C-0.038428 6.13464 -0.038428 6.41087 0.115284 6.60817C2.9371 10.2283 7.215 12.5454 11.9999 12.5454C16.7822 12.5454 21.0599 10.2279 23.8846 6.60817C24.0385 6.41089 24.0385 6.13428 23.8846 5.93721C21.0601 2.31732 16.7824 0 11.9999 0V0.000341095ZM11.1817 1.28772C14.0182 1.28772 16.2968 3.53101 16.2968 6.30008C16.2968 9.06916 14.0183 11.3124 11.1817 11.3124C8.34522 11.3124 6.06657 9.06916 6.06657 6.30008C6.06657 3.53116 8.34507 1.28772 11.1817 1.28772ZM14.8735 1.39825C17.9837 2.07286 20.7279 3.82173 22.7544 6.27279C20.7498 8.697 18.044 10.4341 14.9763 11.1247C16.4409 10.008 17.3872 8.26195 17.3872 6.30001C17.3872 4.29239 16.3964 2.51059 14.8732 1.3982L14.8735 1.39825ZM6.56503 2.22695C5.57804 3.30754 4.97575 4.73508 4.97575 6.3002C4.97575 7.82213 5.54512 9.21431 6.48438 10.2835C4.46195 9.38379 2.67426 8.00345 1.24458 6.27298C2.69306 4.51953 4.50948 3.12545 6.56522 2.22695H6.56503Z" fill="#16161D"/>
    <path fill-rule="evenodd" clip-rule="evenodd" d="M11.1817 3.90234C9.85061 3.90234 8.74951 4.97738 8.74951 6.30031C8.74951 7.62534 9.85177 8.69847 11.1817 8.69847C12.5117 8.69847 13.6139 7.62553 13.6139 6.30031C13.6139 4.97738 12.5128 3.90234 11.1817 3.90234ZM11.1817 4.99316C11.9326 4.99316 12.5231 5.57909 12.5231 6.30031C12.5231 7.02533 11.9336 7.60766 11.1817 7.60766C10.4297 7.60766 9.84033 7.02553 9.84033 6.30031C9.84033 5.57909 10.4308 4.99316 11.1817 4.99316Z" fill="#16161D"/>
</svg>
